<?xml version="1.0" standalone="no"?>
<!DOCTYPE svg PUBLIC "-//W3C//DTD SVG 1.1//EN" 
  "http://www.w3.org/Graphics/SVG/1.1/DTD/svg11.dtd">
<svg width="1000.00" height="1000.00" version="1.1" id="toplevel"
    xmlns="http://www.w3.org/2000/svg"
    xmlns:xlink="http://www.w3.org/1999/xlink">
<path d="M-384.82 1473.80
L83.12 1106.45
L125.57 1073.13
L154.95 1050.07
L123.69 1064.06
L91.48 1078.47
"
      fill="none" stroke="black" stroke-width="1.10" stroke-linejoin="bevel"/>
<path d="M938.43 -311.29
L622.09 -200.57
L503.71 -159.14
L481.27 -151.29
L314.04 -92.76
L445.56 -28.99
L448.10 -27.76
L724.02 106.02
L743.09 115.27
"
      fill="none" stroke="black" stroke-width="1.10" stroke-linejoin="bevel"/>
<path d="M389.11 1314.20
L592.39 944.89
L592.76 944.22
L624.19 887.12
L628.04 880.12
L644.36 850.47
L782.96 598.66
L821.19 529.22
"
      fill="none" stroke="black" stroke-width="1.10" stroke-linejoin="bevel"/>
<path d="M942.38 761.45
L942.49 763.18
L945.33 808.81
L973.12 1255.28
L698.19 956.38
L629.40 881.59
L628.04 880.12
L607.33 857.60
L334.50 560.99
L300.06 523.54
L231.83 449.37
L-63.80 127.97
L330.59 228.33
L376.21 239.94
L507.33 273.31
L729.99 329.98
L804.80 349.02
L913.92 376.78
L954.95 387.23
L902.33 401.97
L829.21 422.44
L673.19 466.14
L606.93 484.70
L476.97 521.09
L334.50 560.99
L286.38 574.47
L241.09 587.15
L160.13 609.82
L36.52 644.44
L-256.74 726.57
L-317.94 1036.66
"
      fill="none" stroke="black" stroke-width="1.10" stroke-linejoin="bevel"/>
<path d="M119.38 1196.37
L134.56 1139.84
L137.31 1129.62
L273.98 620.64
L286.38 574.47
L300.06 523.54
L376.21 239.94
L448.10 -27.76
L452.74 -45.07
L481.27 -151.29
L497.29 -210.97
"
      fill="none" stroke="black" stroke-width="1.10" stroke-linejoin="bevel"/>
<path d="M365.95 1290.01
L290.70 1241.17
L140.19 1143.49
L134.56 1139.84
L83.12 1106.45
L-29.20 1033.56
L70.84 809.66
L160.13 609.82
L192.41 537.58
L231.83 449.37
L330.59 228.33
L445.56 -28.99
L452.74 -45.07
L503.71 -159.14
L579.49 -328.73
L622.09 -200.57
L724.02 106.02
L756.93 205.01
L778.29 269.26
L804.80 349.02
L829.21 422.44
L855.92 502.79
L889.91 605.02
L927.78 718.94
L942.49 763.18
L966.97 836.83
L1053.80 1098.01
L1132.28 1334.09
"
      fill="none" stroke="black" stroke-width="1.10" stroke-linejoin="bevel"/>
<path d="M522.79 1360.14
L592.61 945.11
L592.76 944.22
L597.62 915.33
L607.33 857.60
L617.44 797.50
L669.32 489.16
L673.19 466.14
L677.95 437.85
"
      fill="none" stroke="black" stroke-width="1.10" stroke-linejoin="bevel"/>
<path d="M885.53 169.82
L849.55 179.67
L756.93 205.01
L507.33 273.31
L370.13 310.85
L476.97 521.09
L617.44 797.50
L644.36 850.47
L649.39 860.36
L671.41 903.69
L671.86 904.57
L698.19 956.38
L799.56 1155.86
L592.61 945.11
L592.39 944.89
L580.85 933.13
L273.98 620.64
L241.09 587.15
L192.41 537.58
L-33.46 307.57
L-329.30 6.31
L-341.30 575.93
"
      fill="none" stroke="black" stroke-width="1.10" stroke-linejoin="bevel"/>
<path d="M1457.29 334.84
L1142.50 563.18
L927.78 718.94
L894.52 743.06
L671.86 904.57
L670.57 905.51
L671.41 903.69
L731.44 773.26
L801.03 622.05
L855.92 502.79
L902.33 401.97
L913.92 376.78
L1217.62 -283.07
L849.55 179.67
L778.29 269.26
L729.99 329.98
L606.93 484.70
L591.12 504.57
L669.32 489.16
L694.52 484.19
L782.96 598.66
L801.03 622.05
L833.85 664.53
L894.52 743.06
L945.33 808.81
L966.97 836.83
L1074.12 975.51
L1452.41 1465.13
"
      fill="none" stroke="black" stroke-width="1.10" stroke-linejoin="bevel"/>
<path d="M1354.31 312.32
L1298.64 -378.25
L1142.50 563.18
L1074.12 975.51
L1053.80 1098.01
L994.95 1452.81
"
      fill="none" stroke="black" stroke-width="1.10" stroke-linejoin="bevel"/>
<path d="M-163.46 -318.24
L-33.46 307.57
L36.52 644.44
L70.84 809.66
L123.69 1064.06
L125.57 1073.13
L137.31 1129.62
L140.19 1143.49
L184.01 1354.44
L290.70 1241.17
L580.85 933.13
L597.62 915.33
L624.19 887.12
L629.40 881.59
L649.39 860.36
L731.44 773.26
L833.85 664.53
L889.91 605.02
L997.07 491.24
"
      fill="none" stroke="black" stroke-width="1.10" stroke-linejoin="bevel"/>
<path d="M607.33 857.60
L628.04 880.12
L629.40 881.59
L671.41 903.69
L671.86 904.57
L670.57 905.51
L698.19 956.38
L743.02 1042.24
L799.56 1155.86
L628.85 1363.44
L620.86 1472.68
"
      fill="none" stroke="black" stroke-opacity="0.20" stroke-width="5.00"
      stroke-linejoin="bevel"/>
<path d="M125.57 1073.13
L123.69 1064.06
L154.95 1050.07
L137.09 967.48
L12.70 888.09
L-121.84 877.44
L-79.79 764.92
L-88.17 701.33
L-205.17 617.05
L-341.30 575.93
L-416.43 484.53
L-255.34 376.02
L-168.99 334.23
L-88.38 519.95
L-205.17 617.05
L-256.74 726.57
L-278.17 757.20
L-356.33 971.12
L-317.94 1036.66
L-199.23 1165.53
L-45.54 1226.57
L119.38 1196.37
L140.19 1143.49
L134.56 1139.84
L137.31 1129.62
L125.57 1073.13
L91.48 1078.47
L-29.20 1033.56
L12.70 888.09
L70.84 809.66
L92.30 709.18
L160.13 609.82
L192.41 537.58
L231.83 449.37
L370.13 310.85
L376.21 239.94
L448.10 -27.76
L445.56 -28.99
L314.04 -92.76
L261.22 -213.34
L241.93 -317.67
L405.74 -352.60
L497.29 -210.97
L503.71 -159.14
L481.27 -151.29
L452.74 -45.07
L445.56 -28.99
"
      fill="none" stroke="black" stroke-opacity="0.20" stroke-width="5.00"
      stroke-linejoin="bevel"/>
<path d="M-168.99 334.23
L-33.46 307.57
L231.83 449.37
L300.06 523.54
L334.50 560.99
L476.97 521.09
L591.12 504.57
L606.93 484.70
L669.32 489.16
L694.52 484.19
L821.19 529.22
L855.92 502.79
L829.21 422.44
L804.80 349.02
L729.99 329.98
L677.95 437.85
L673.19 466.14
L669.32 489.16
"
      fill="none" stroke="black" stroke-opacity="0.20" stroke-width="5.00"
      stroke-linejoin="bevel"/>
<path d="M192.41 537.58
L241.09 587.15
L286.38 574.47
L334.50 560.99
"
      fill="none" stroke="black" stroke-opacity="0.20" stroke-width="5.00"
      stroke-linejoin="bevel"/>
<path d="M729.99 329.98
L778.29 269.26
L756.93 205.01
L743.09 115.27
L724.02 106.02
L448.10 -27.76
"
      fill="none" stroke="black" stroke-opacity="0.20" stroke-width="5.00"
      stroke-linejoin="bevel"/>
<path d="M241.93 -317.67
L-22.48 -252.78
L-163.46 -318.24
L-216.67 -294.27
L-356.97 -190.37
L-329.30 6.31
L-269.75 88.36
L-63.80 127.97
L67.17 129.20
L330.59 228.33
L376.21 239.94
L507.33 273.31
L574.71 426.39
L606.93 484.70
"
      fill="none" stroke="black" stroke-opacity="0.20" stroke-width="5.00"
      stroke-linejoin="bevel"/>
<path d="M628.04 880.12
L649.39 860.36
L644.36 850.47
L617.44 797.50
"
      fill="none" stroke="black" stroke-opacity="0.20" stroke-width="5.00"
      stroke-linejoin="bevel"/>
<path d="M770.73 938.27
L698.19 956.38
L643.28 1037.92
L592.61 945.11
L592.39 944.89
L592.76 944.22
L580.85 933.13
L376.06 1026.73
L154.95 1050.07
"
      fill="none" stroke="black" stroke-opacity="0.20" stroke-width="5.00"
      stroke-linejoin="bevel"/>
<path d="M241.09 587.15
L273.98 620.64
"
      fill="none" stroke="black" stroke-opacity="0.20" stroke-width="5.00"
      stroke-linejoin="bevel"/>
<path d="M1069.58 467.05
L1142.50 563.18
L1445.77 506.83
L1439.62 468.16
L1457.29 334.84
L1354.31 312.32
L1069.58 467.05
L997.07 491.24
L971.61 461.31
L954.95 387.23
L913.92 376.78
L902.33 401.97
L829.21 422.44
"
      fill="none" stroke="black" stroke-opacity="0.20" stroke-width="5.00"
      stroke-linejoin="bevel"/>
<path d="M959.15 -317.18
L938.43 -311.29
L958.18 -212.31
L893.84 -63.07
L866.63 10.34
L925.53 126.58
L885.53 169.82
L849.55 179.67
L756.93 205.01
"
      fill="none" stroke="black" stroke-opacity="0.20" stroke-width="5.00"
      stroke-linejoin="bevel"/>
<path d="M1142.50 563.18
L1320.82 844.89
L1074.12 975.51
L1046.39 969.84
L966.97 836.83
L945.33 808.81
L942.49 763.18
L942.38 761.45
L941.52 740.32
L927.78 718.94
L894.52 743.06
L833.85 664.53
L801.03 622.05
L782.96 598.66
L821.19 529.22
"
      fill="none" stroke="black" stroke-opacity="0.20" stroke-width="5.00"
      stroke-linejoin="bevel"/>
<path d="M833.85 664.53
L889.91 605.02
"
      fill="none" stroke="black" stroke-opacity="0.20" stroke-width="5.00"
      stroke-linejoin="bevel"/>
<path d="M801.03 622.05
L721.48 669.04
L731.44 773.26
L644.36 850.47
"
      fill="none" stroke="black" stroke-opacity="0.20" stroke-width="5.00"
      stroke-linejoin="bevel"/>
<path d="M580.85 933.13
L597.62 915.33
L624.19 887.12
L629.40 881.59
"
      fill="none" stroke="black" stroke-opacity="0.20" stroke-width="5.00"
      stroke-linejoin="bevel"/>
<path d="M92.30 709.18
L36.52 644.44
L-88.38 519.95
"
      fill="none" stroke="black" stroke-opacity="0.20" stroke-width="5.00"
      stroke-linejoin="bevel"/>
<path d="M799.56 1155.86
L873.01 1085.17
L991.07 1101.04
L1053.80 1098.01
L1074.12 975.51
"
      fill="none" stroke="black" stroke-opacity="0.20" stroke-width="5.00"
      stroke-linejoin="bevel"/>
<path d="M973.12 1255.28
L1017.52 1201.80
L991.07 1101.04
"
      fill="none" stroke="black" stroke-opacity="0.20" stroke-width="5.00"
      stroke-linejoin="bevel"/>
<path d="M994.95 1452.81
L1041.31 1444.35
L1132.28 1334.09
L1452.41 1465.13
"
      fill="none" stroke="black" stroke-opacity="0.20" stroke-width="5.00"
      stroke-linejoin="bevel"/>
<path d="M119.38 1196.37
L206.33 1205.17
L290.70 1241.17
L365.95 1290.01
L389.11 1314.20
L522.79 1360.14
L628.85 1363.44
"
      fill="none" stroke="black" stroke-opacity="0.20" stroke-width="5.00"
      stroke-linejoin="bevel"/>
<path d="M206.33 1205.17
L184.01 1354.44
L-15.42 1428.26
L-31.84 1366.89
L-45.54 1226.57
"
      fill="none" stroke="black" stroke-opacity="0.20" stroke-width="5.00"
      stroke-linejoin="bevel"/>
<path d="M-88.17 701.33
L36.52 644.44
"
      fill="none" stroke="black" stroke-opacity="0.20" stroke-width="5.00"
      stroke-linejoin="bevel"/>
<path d="M376.06 1026.73
L346.11 1191.07
L290.70 1241.17
"
      fill="none" stroke="black" stroke-opacity="0.20" stroke-width="5.00"
      stroke-linejoin="bevel"/>
<path d="M743.02 1042.24
L856.83 1024.42
L873.01 1085.17
"
      fill="none" stroke="black" stroke-opacity="0.20" stroke-width="5.00"
      stroke-linejoin="bevel"/>
<path d="M893.84 -63.07
L622.09 -200.57
L562.26 -274.16
L579.49 -328.73
"
      fill="none" stroke="black" stroke-opacity="0.20" stroke-width="5.00"
      stroke-linejoin="bevel"/>
<path d="M-216.67 -294.27
L-118.35 -139.55
L-63.80 127.97
L-34.99 240.35
L-33.46 307.57
"
      fill="none" stroke="black" stroke-opacity="0.20" stroke-width="5.00"
      stroke-linejoin="bevel"/>
<path d="M1470.66 -400.86
L1298.64 -378.25
L1281.04 -271.00
L1324.17 -208.14
L1377.16 -91.49
L1354.31 312.32
"
      fill="none" stroke="black" stroke-opacity="0.20" stroke-width="5.00"
      stroke-linejoin="bevel"/>
<path d="M-384.82 1473.80
L-199.23 1165.53
"
      fill="none" stroke="black" stroke-opacity="0.20" stroke-width="5.00"
      stroke-linejoin="bevel"/>
<path d="M91.48 1078.47
L83.12 1106.45
"
      fill="none" stroke="black" stroke-opacity="0.20" stroke-width="5.00"
      stroke-linejoin="bevel"/>
<path d="M1281.04 -271.00
L1217.62 -283.07
L1103.08 -214.19
L958.18 -212.31
"
      fill="none" stroke="black" stroke-opacity="0.20" stroke-width="5.00"
      stroke-linejoin="bevel"/>
<path d="M-256.74 726.57
L-196.21 780.20
L-79.79 764.92
"
      fill="none" stroke="black" stroke-opacity="0.20" stroke-width="5.00"
      stroke-linejoin="bevel"/>
<path d="M-118.35 -139.55
L-22.48 -252.78
"
      fill="none" stroke="black" stroke-opacity="0.20" stroke-width="5.00"
      stroke-linejoin="bevel"/>
<path d="M1132.28 1334.09
L1017.52 1201.80
"
      fill="none" stroke="black" stroke-opacity="0.20" stroke-width="5.00"
      stroke-linejoin="bevel"/>
<path d="M562.26 -274.16
L497.29 -210.97
"
      fill="none" stroke="black" stroke-opacity="0.20" stroke-width="5.00"
      stroke-linejoin="bevel"/>
<circle cx="-255.34" cy="376.02" r="5.00" fill="none" stroke="black"
        stroke-width="1.10"/>
<circle cx="67.17" cy="129.20" r="5.00" fill="none" stroke="black"
        stroke-width="1.10"/>
<circle cx="562.26" cy="-274.16" r="5.00" fill="none" stroke="black"
        stroke-width="1.10"/>
<circle cx="261.22" cy="-213.34" r="5.00" fill="none" stroke="black"
        stroke-width="1.10"/>
<circle cx="994.95" cy="1452.81" r="16.41" fill="black" stroke="black"
        stroke-width="1.10"/>
<circle cx="1298.64" cy="-378.25" r="4.31" fill="none" stroke="black"
        stroke-width="1.10"/>
<circle cx="1354.31" cy="312.32" r="5.00" fill="black" stroke="black"
        stroke-width="1.10"/>
<circle cx="1377.16" cy="-91.49" r="5.00" fill="none" stroke="black"
        stroke-width="1.10"/>
<circle cx="-163.46" cy="-318.24" r="15.48" fill="black" stroke="black"
        stroke-width="1.10"/>
<circle cx="184.01" cy="1354.44" r="6.69" fill="none" stroke="black"
        stroke-width="1.10"/>
<circle cx="997.07" cy="491.24" r="5.00" fill="black" stroke="black"
        stroke-width="1.10"/>
<circle cx="-45.54" cy="1226.57" r="5.00" fill="none" stroke="black"
        stroke-width="1.10"/>
<circle cx="1452.41" cy="1465.13" r="2.02" fill="black" stroke="black"
        stroke-width="1.10"/>
<circle cx="694.52" cy="484.19" r="19.64" fill="none" stroke="black"
        stroke-width="1.10"/>
<circle cx="591.12" cy="504.57" r="3.15" fill="none" stroke="black"
        stroke-width="1.10"/>
<circle cx="1217.62" cy="-283.07" r="0.72" fill="none" stroke="black"
        stroke-width="1.10"/>
<circle cx="670.57" cy="905.51" r="4.96" fill="none" stroke="black"
        stroke-width="1.10"/>
<circle cx="1457.29" cy="334.84" r="5.00" fill="black" stroke="black"
        stroke-width="1.10"/>
<circle cx="-341.30" cy="575.93" r="2.39" fill="black" stroke="black"
        stroke-width="1.10"/>
<circle cx="-329.30" cy="6.31" r="15.82" fill="none" stroke="black"
        stroke-width="1.10"/>
<circle cx="799.56" cy="1155.86" r="1.38" fill="none" stroke="black"
        stroke-width="1.10"/>
<circle cx="370.13" cy="310.85" r="9.28" fill="none" stroke="black"
        stroke-width="1.10"/>
<circle cx="885.53" cy="169.82" r="5.00" fill="black" stroke="black"
        stroke-width="1.10"/>
<circle cx="770.73" cy="938.27" r="5.00" fill="none" stroke="black"
        stroke-width="1.10"/>
<circle cx="677.95" cy="437.85" r="12.19" fill="black" stroke="black"
        stroke-width="1.10"/>
<circle cx="522.79" cy="1360.14" r="5.00" fill="black" stroke="black"
        stroke-width="1.10"/>
<circle cx="-278.17" cy="757.20" r="5.00" fill="none" stroke="black"
        stroke-width="1.10"/>
<circle cx="-118.35" cy="-139.55" r="5.00" fill="none" stroke="black"
        stroke-width="1.10"/>
<circle cx="365.95" cy="1290.01" r="14.37" fill="black" stroke="black"
        stroke-width="1.10"/>
<circle cx="-29.20" cy="1033.56" r="17.29" fill="none" stroke="black"
        stroke-width="1.10"/>
<circle cx="579.49" cy="-328.73" r="1.61" fill="none" stroke="black"
        stroke-width="1.10"/>
<circle cx="1132.28" cy="1334.09" r="5.00" fill="black" stroke="black"
        stroke-width="1.10"/>
<circle cx="119.38" cy="1196.37" r="0.28" fill="black" stroke="black"
        stroke-width="1.10"/>
<circle cx="497.29" cy="-210.97" r="5.00" fill="black" stroke="black"
        stroke-width="1.10"/>
<circle cx="-317.94" cy="1036.66" r="2.18" fill="black" stroke="black"
        stroke-width="1.10"/>
<circle cx="-256.74" cy="726.57" r="16.73" fill="none" stroke="black"
        stroke-width="1.10"/>
<circle cx="954.95" cy="387.23" r="10.59" fill="none" stroke="black"
        stroke-width="1.10"/>
<circle cx="-63.80" cy="127.97" r="18.47" fill="none" stroke="black"
        stroke-width="1.10"/>
<circle cx="973.12" cy="1255.28" r="5.48" fill="none" stroke="black"
        stroke-width="1.10"/>
<circle cx="942.38" cy="761.45" r="5.00" fill="black" stroke="black"
        stroke-width="1.10"/>
<circle cx="-196.21" cy="780.20" r="5.00" fill="none" stroke="black"
        stroke-width="1.10"/>
<circle cx="1103.08" cy="-214.19" r="5.00" fill="none" stroke="black"
        stroke-width="1.10"/>
<circle cx="821.19" cy="529.22" r="18.59" fill="black" stroke="black"
        stroke-width="1.10"/>
<circle cx="389.11" cy="1314.20" r="5.00" fill="black" stroke="black"
        stroke-width="1.10"/>
<circle cx="743.09" cy="115.27" r="0.47" fill="black" stroke="black"
        stroke-width="1.10"/>
<circle cx="314.04" cy="-92.76" r="6.81" fill="none" stroke="black"
        stroke-width="1.10"/>
<circle cx="938.43" cy="-311.29" r="5.00" fill="black" stroke="black"
        stroke-width="1.10"/>
<circle cx="91.48" cy="1078.47" r="8.05" fill="black" stroke="black"
        stroke-width="1.10"/>
<circle cx="154.95" cy="1050.07" r="13.09" fill="none" stroke="black"
        stroke-width="1.10"/>
<circle cx="-384.82" cy="1473.80" r="5.00" fill="black" stroke="black"
        stroke-width="1.10"/>
<circle cx="-356.33" cy="971.12" r="5.00" fill="none" stroke="black"
        stroke-width="1.10"/>
<circle cx="-216.67" cy="-294.27" r="5.00" fill="none" stroke="black"
        stroke-width="1.10"/>
<circle cx="1069.58" cy="467.05" r="5.00" fill="none" stroke="black"
        stroke-width="1.10"/>
<circle cx="346.11" cy="1191.07" r="5.00" fill="none" stroke="black"
        stroke-width="1.10"/>
<circle cx="628.85" cy="1363.44" r="5.00" fill="none" stroke="black"
        stroke-width="1.10"/>
<circle cx="1046.39" cy="969.84" r="5.00" fill="none" stroke="black"
        stroke-width="1.10"/>
<circle cx="1324.17" cy="-208.14" r="5.00" fill="none" stroke="black"
        stroke-width="1.10"/>
<circle cx="574.71" cy="426.39" r="5.00" fill="none" stroke="black"
        stroke-width="1.10"/>
<circle cx="12.70" cy="888.09" r="5.00" fill="none" stroke="black"
        stroke-width="1.10"/>
<circle cx="866.63" cy="10.34" r="5.00" fill="none" stroke="black"
        stroke-width="1.10"/>
<circle cx="-199.23" cy="1165.53" r="5.00" fill="none" stroke="black"
        stroke-width="1.10"/>
<circle cx="1470.66" cy="-400.86" r="5.00" fill="none" stroke="black"
        stroke-width="1.10"/>
<circle cx="-168.99" cy="334.23" r="5.00" fill="none" stroke="black"
        stroke-width="1.10"/>
<circle cx="925.53" cy="126.58" r="5.00" fill="none" stroke="black"
        stroke-width="1.10"/>
<circle cx="137.09" cy="967.48" r="5.00" fill="none" stroke="black"
        stroke-width="1.10"/>
<circle cx="721.48" cy="669.04" r="5.00" fill="none" stroke="black"
        stroke-width="1.10"/>
<circle cx="1281.04" cy="-271.00" r="5.00" fill="none" stroke="black"
        stroke-width="1.10"/>
<circle cx="-31.84" cy="1366.89" r="5.00" fill="none" stroke="black"
        stroke-width="1.10"/>
<circle cx="-205.17" cy="617.05" r="5.00" fill="none" stroke="black"
        stroke-width="1.10"/>
<circle cx="-34.99" cy="240.35" r="5.00" fill="none" stroke="black"
        stroke-width="1.10"/>
<circle cx="92.30" cy="709.18" r="5.00" fill="none" stroke="black"
        stroke-width="1.10"/>
<circle cx="-79.79" cy="764.92" r="5.00" fill="none" stroke="black"
        stroke-width="1.10"/>
<circle cx="-356.97" cy="-190.37" r="5.00" fill="none" stroke="black"
        stroke-width="1.10"/>
<circle cx="-416.43" cy="484.53" r="5.00" fill="none" stroke="black"
        stroke-width="1.10"/>
<circle cx="1445.77" cy="506.83" r="5.00" fill="none" stroke="black"
        stroke-width="1.10"/>
<circle cx="893.84" cy="-63.07" r="5.00" fill="none" stroke="black"
        stroke-width="1.10"/>
<circle cx="856.83" cy="1024.42" r="5.00" fill="none" stroke="black"
        stroke-width="1.10"/>
<circle cx="743.02" cy="1042.24" r="5.00" fill="none" stroke="black"
        stroke-width="1.10"/>
<circle cx="1320.82" cy="844.89" r="5.00" fill="none" stroke="black"
        stroke-width="1.10"/>
<circle cx="959.15" cy="-317.18" r="5.00" fill="none" stroke="black"
        stroke-width="1.10"/>
<circle cx="376.06" cy="1026.73" r="5.00" fill="none" stroke="black"
        stroke-width="1.10"/>
<circle cx="620.86" cy="1472.68" r="5.00" fill="none" stroke="black"
        stroke-width="1.10"/>
<circle cx="991.07" cy="1101.04" r="5.00" fill="none" stroke="black"
        stroke-width="1.10"/>
<circle cx="-88.17" cy="701.33" r="5.00" fill="none" stroke="black"
        stroke-width="1.10"/>
<circle cx="206.33" cy="1205.17" r="5.00" fill="none" stroke="black"
        stroke-width="1.10"/>
<circle cx="-88.38" cy="519.95" r="5.00" fill="none" stroke="black"
        stroke-width="1.10"/>
<circle cx="-269.75" cy="88.36" r="5.00" fill="none" stroke="black"
        stroke-width="1.10"/>
<circle cx="-22.48" cy="-252.78" r="5.00" fill="none" stroke="black"
        stroke-width="1.10"/>
<circle cx="-121.84" cy="877.44" r="5.00" fill="none" stroke="black"
        stroke-width="1.10"/>
<circle cx="941.52" cy="740.32" r="5.00" fill="none" stroke="black"
        stroke-width="1.10"/>
<circle cx="-15.42" cy="1428.26" r="5.00" fill="none" stroke="black"
        stroke-width="1.10"/>
<circle cx="405.74" cy="-352.60" r="5.00" fill="none" stroke="black"
        stroke-width="1.10"/>
<circle cx="971.61" cy="461.31" r="5.00" fill="none" stroke="black"
        stroke-width="1.10"/>
<circle cx="241.93" cy="-317.67" r="5.00" fill="none" stroke="black"
        stroke-width="1.10"/>
<circle cx="1439.62" cy="468.16" r="5.00" fill="none" stroke="black"
        stroke-width="1.10"/>
<circle cx="873.01" cy="1085.17" r="5.00" fill="none" stroke="black"
        stroke-width="1.10"/>
<circle cx="643.28" cy="1037.92" r="5.00" fill="none" stroke="black"
        stroke-width="1.10"/>
<circle cx="1041.31" cy="1444.35" r="5.00" fill="none" stroke="black"
        stroke-width="1.10"/>
<circle cx="1017.52" cy="1201.80" r="5.00" fill="none" stroke="black"
        stroke-width="1.10"/>
<circle cx="958.18" cy="-212.31" r="5.00" fill="none" stroke="black"
        stroke-width="1.10"/>
<circle cx="1053.80" cy="1098.01" r="5.00" fill="none" stroke="black"
        stroke-width="1.10"/>
<circle cx="1074.12" cy="975.51" r="5.00" fill="none" stroke="black"
        stroke-width="1.10"/>
<circle cx="1142.50" cy="563.18" r="5.00" fill="none" stroke="black"
        stroke-width="1.10"/>
<circle cx="-33.46" cy="307.57" r="5.00" fill="none" stroke="black"
        stroke-width="1.10"/>
<circle cx="36.52" cy="644.44" r="5.00" fill="none" stroke="black"
        stroke-width="1.10"/>
<circle cx="70.84" cy="809.66" r="5.00" fill="none" stroke="black"
        stroke-width="1.10"/>
<circle cx="123.69" cy="1064.06" r="5.00" fill="none" stroke="black"
        stroke-width="1.10"/>
<circle cx="125.57" cy="1073.13" r="5.00" fill="none" stroke="black"
        stroke-width="1.10"/>
<circle cx="137.31" cy="1129.62" r="5.00" fill="none" stroke="black"
        stroke-width="1.10"/>
<circle cx="140.19" cy="1143.49" r="5.00" fill="none" stroke="black"
        stroke-width="1.10"/>
<circle cx="290.70" cy="1241.17" r="5.00" fill="none" stroke="black"
        stroke-width="1.10"/>
<circle cx="580.85" cy="933.13" r="5.00" fill="none" stroke="black"
        stroke-width="1.10"/>
<circle cx="597.62" cy="915.33" r="5.00" fill="none" stroke="black"
        stroke-width="1.10"/>
<circle cx="624.19" cy="887.12" r="5.00" fill="none" stroke="black"
        stroke-width="1.10"/>
<circle cx="629.40" cy="881.59" r="5.00" fill="none" stroke="black"
        stroke-width="1.10"/>
<circle cx="649.39" cy="860.36" r="5.00" fill="none" stroke="black"
        stroke-width="1.10"/>
<circle cx="731.44" cy="773.26" r="5.00" fill="none" stroke="black"
        stroke-width="1.10"/>
<circle cx="833.85" cy="664.53" r="5.00" fill="none" stroke="black"
        stroke-width="1.10"/>
<circle cx="889.91" cy="605.02" r="5.00" fill="none" stroke="black"
        stroke-width="1.10"/>
<circle cx="966.97" cy="836.83" r="5.00" fill="none" stroke="black"
        stroke-width="1.10"/>
<circle cx="945.33" cy="808.81" r="5.00" fill="none" stroke="black"
        stroke-width="1.10"/>
<circle cx="894.52" cy="743.06" r="5.00" fill="none" stroke="black"
        stroke-width="1.10"/>
<circle cx="801.03" cy="622.05" r="5.00" fill="none" stroke="black"
        stroke-width="1.10"/>
<circle cx="782.96" cy="598.66" r="5.00" fill="none" stroke="black"
        stroke-width="1.10"/>
<circle cx="669.32" cy="489.16" r="5.00" fill="none" stroke="black"
        stroke-width="1.10"/>
<circle cx="606.93" cy="484.70" r="5.00" fill="none" stroke="black"
        stroke-width="1.10"/>
<circle cx="729.99" cy="329.98" r="5.00" fill="none" stroke="black"
        stroke-width="1.10"/>
<circle cx="778.29" cy="269.26" r="5.00" fill="none" stroke="black"
        stroke-width="1.10"/>
<circle cx="849.55" cy="179.67" r="5.00" fill="none" stroke="black"
        stroke-width="1.10"/>
<circle cx="913.92" cy="376.78" r="5.00" fill="none" stroke="black"
        stroke-width="1.10"/>
<circle cx="902.33" cy="401.97" r="5.00" fill="none" stroke="black"
        stroke-width="1.10"/>
<circle cx="855.92" cy="502.79" r="5.00" fill="none" stroke="black"
        stroke-width="1.10"/>
<circle cx="671.41" cy="903.69" r="5.00" fill="none" stroke="black"
        stroke-width="1.10"/>
<circle cx="671.86" cy="904.57" r="5.00" fill="none" stroke="black"
        stroke-width="1.10"/>
<circle cx="927.78" cy="718.94" r="5.00" fill="none" stroke="black"
        stroke-width="1.10"/>
<circle cx="192.41" cy="537.58" r="5.00" fill="none" stroke="black"
        stroke-width="1.10"/>
<circle cx="241.09" cy="587.15" r="5.00" fill="none" stroke="black"
        stroke-width="1.10"/>
<circle cx="273.98" cy="620.64" r="5.00" fill="none" stroke="black"
        stroke-width="1.10"/>
<circle cx="592.39" cy="944.89" r="5.00" fill="none" stroke="black"
        stroke-width="1.10"/>
<circle cx="592.61" cy="945.11" r="5.00" fill="none" stroke="black"
        stroke-width="1.10"/>
<circle cx="698.19" cy="956.38" r="5.00" fill="none" stroke="black"
        stroke-width="1.10"/>
<circle cx="644.36" cy="850.47" r="5.00" fill="none" stroke="black"
        stroke-width="1.10"/>
<circle cx="617.44" cy="797.50" r="5.00" fill="none" stroke="black"
        stroke-width="1.10"/>
<circle cx="476.97" cy="521.09" r="5.00" fill="none" stroke="black"
        stroke-width="1.10"/>
<circle cx="507.33" cy="273.31" r="5.00" fill="none" stroke="black"
        stroke-width="1.10"/>
<circle cx="756.93" cy="205.01" r="5.00" fill="none" stroke="black"
        stroke-width="1.10"/>
<circle cx="673.19" cy="466.14" r="5.00" fill="none" stroke="black"
        stroke-width="1.10"/>
<circle cx="607.33" cy="857.60" r="5.00" fill="none" stroke="black"
        stroke-width="1.10"/>
<circle cx="592.76" cy="944.22" r="5.00" fill="none" stroke="black"
        stroke-width="1.10"/>
<circle cx="134.56" cy="1139.84" r="5.00" fill="none" stroke="black"
        stroke-width="1.10"/>
<circle cx="83.12" cy="1106.45" r="5.00" fill="none" stroke="black"
        stroke-width="1.10"/>
<circle cx="160.13" cy="609.82" r="5.00" fill="none" stroke="black"
        stroke-width="1.10"/>
<circle cx="231.83" cy="449.37" r="5.00" fill="none" stroke="black"
        stroke-width="1.10"/>
<circle cx="330.59" cy="228.33" r="5.00" fill="none" stroke="black"
        stroke-width="1.10"/>
<circle cx="445.56" cy="-28.99" r="5.00" fill="none" stroke="black"
        stroke-width="1.10"/>
<circle cx="452.74" cy="-45.07" r="5.00" fill="none" stroke="black"
        stroke-width="1.10"/>
<circle cx="503.71" cy="-159.14" r="5.00" fill="none" stroke="black"
        stroke-width="1.10"/>
<circle cx="622.09" cy="-200.57" r="5.00" fill="none" stroke="black"
        stroke-width="1.10"/>
<circle cx="724.02" cy="106.02" r="5.00" fill="none" stroke="black"
        stroke-width="1.10"/>
<circle cx="804.80" cy="349.02" r="5.00" fill="none" stroke="black"
        stroke-width="1.10"/>
<circle cx="829.21" cy="422.44" r="5.00" fill="none" stroke="black"
        stroke-width="1.10"/>
<circle cx="942.49" cy="763.18" r="5.00" fill="none" stroke="black"
        stroke-width="1.10"/>
<circle cx="286.38" cy="574.47" r="5.00" fill="none" stroke="black"
        stroke-width="1.10"/>
<circle cx="300.06" cy="523.54" r="5.00" fill="none" stroke="black"
        stroke-width="1.10"/>
<circle cx="376.21" cy="239.94" r="5.00" fill="none" stroke="black"
        stroke-width="1.10"/>
<circle cx="448.10" cy="-27.76" r="5.00" fill="none" stroke="black"
        stroke-width="1.10"/>
<circle cx="481.27" cy="-151.29" r="5.00" fill="none" stroke="black"
        stroke-width="1.10"/>
<circle cx="334.50" cy="560.99" r="5.00" fill="none" stroke="black"
        stroke-width="1.10"/>
<circle cx="628.04" cy="880.12" r="5.00" fill="none" stroke="black"
        stroke-width="1.10"/>
</svg>
